**ABCDEFGHIJKLMNOPQRSTUVWXYZabcdefghijklmnopqrstuvwxyz**************************
**PARASOLID !"#$%&'()*+,-./:;<=>?@[\]^_`{|}~0123456789**************************
**PART1;
MC=AMD64;
MC_MODEL=Intel64 Family 6 Model 142 Stepping 10, GenuineIntel;
MC_ID=unknown;
OS=Windows_NT;
OS_RELEASE=unknown;
FRU=Parasolid Version 31.0, build 264, 12-10-2018;
APPL=SOLIDWORKS 2019-2019057;
SITE=;
USER=unknown;
FORMAT=text;
GUISE=transmit;
KEY=AnsysSimulation_clip_setup_surface;
FILE=AnsysSimulation_clip_setup_surface.x_t;
DATE=Wed Apr 21 16:10:03 2021;
**PART2;
SCH=SCH_3100264_31001;
USFLD_SIZE=0;
**PART3;
**END_OF_HEADER*****************************************************************
T51 : TRANSMIT FILE created by modeller version 310026423 SCH_3100264_31001_1300
6215 0 10 20 CCCCCCCI4 mesh1006 0 I8 polyline1008 0 CCCCCCCCCCA16 mesh_offset_da
ta206 0 Z1 9 2 3 0 0 0 0 0 0 0 1e3 1e-8 0 0 0 1 0 1 4 0 81 255 2 2 9 5 1 0 0 0 0
 0 0 70 11 CI9 list_type0 0 1 uI10 notransmit0 0 1 lCCCDCCDI12 finger_index0 0 1
 dI12 finger_block1012 0 CZ3 0 4 T1 0 0 1 20 1 6 6 11 255 4 7 0 1 7 8 1 9 0 0 0
 12 34 CCCCCCI4 mesh1006 0 I8 polyline1008 0 CCCCCCCDI5 owner1040 0 CCCCCCI13 bo
undary_mesh1006 0 I17 boundary_polyline1008 0 CCCA16 index_map_offset0 0 1 dA9 i
ndex_map82 0 A17 node_id_index_map82 0 A20 schema_embedding_map82 0 A5 child12 0
 A14 lowest_node_id0 0 1 dA16 mesh_offset_data206 0 Z7 81 10 11 0 0 0 0 0 0 1e3
 1e-8 4 12 0 1 0 3 1 13 14 15 16 0 0 17 18 19 0 0 0 0 0 0 0 100 255 8 8 4 0 0 1
 0 0 0 1 0 0 0 1 0 0 0 1 0 ?11 9 5 0 1 12 20 1 21 4 0 0 12 12 61 22 23 0 0 0 0 0
 0 1e3 1e-8 9 24 7 1 0 3 1 25 26 27 28 0 0 29 30 31 0 0 0 0 0 0 0 100 20 6 9 0 0
 1 0 0 0 1 0 0 0 1 0 0 0 1 0 ?11 21 3 0 1 24 32 1 33 9 0 0 12 24 165 34 35 0 0 0
 0 0 0 1e3 1e-8 21 36 12 1 0 3 1 37 38 39 40 0 0 41 42 43 0 0 0 0 0 0 0 100 32 4
 21 0 0 1 0 0 0 1 0 0 0 1 0 0 0 1 0 ?11 33 1 0 1 36 44 1 0 21 0 0 12 36 124 45 4
6 0 0 0 0 0 0 1e3 1e-8 33 47 24 1 0 3 1 48 49 50 51 0 0 52 53 54 0 0 0 0 0 0 0 1
00 44 2 33 0 0 1 0 0 0 1 0 0 0 1 0 0 0 1 0 ?81 1 45 124 55 36 0 0 0 0 0 70 46 0
 4 T36 0 0 3 20 1 56 56 13 255 48 83 0 36 0 57 0 0 52 57 50 255 49 3 0 57 0 0 0
 +.000700000000000022 2325613659981405e-32 0 0 0 -1 -1 0 0 30 255 50 47 0 53 58
 0 0 +-2e-4 135525271560688e-34 0 1 0 0 29 255 51 81 0 54 59 0 2e-4 135525271560
688e-34 0 19 8 CCCCCCCA5 owner12 0 Z52 82 0 36 0 0 48 V0 16 255 53 45 0 ?60 0 61
 50 0 0 36 18 255 54 79 0 62 0 63 51 ?36 17 255 62 0 0 0 0 54 64 65 0 60 -18 63
 76 0 66 54 67 59 ?36 17 66 0 68 60 69 63 70 61 0 71 +18 67 73 0 69 63 72 73 ?36
 29 59 78 0 63 73 51 -2e-4 135525271560688e-34 0 29 73 75 0 67 74 59 63603896932
1245e-19 -.00063639610306788 0 29 74 72 0 72 75 73 .001163603896932144 -.0017363
96103067875 0 18 72 70 0 76 67 77 74 ?36 29 75 69 0 77 78 74 .0018 -.002 0 18 77
 67 0 79 72 80 75 ?36 29 78 66 0 80 81 75 .0043 -.002 0 18 80 64 0 82 77 83 78 ?
36 29 81 63 0 83 84 78 .0043 -.0017 0 18 83 61 0 85 80 86 81 ?36 29 84 60 0 86 8
7 81 .0042 -.0016 0 18 86 58 0 88 83 89 84 ?36 29 87 57 0 89 90 84 .0018 -.0016
 0 18 89 55 0 91 86 92 87 ?36 29 90 54 0 92 93 87 .001446446609406748 -.00145355
339059326 0 18 92 52 0 94 89 95 90 ?36 29 93 51 0 95 0 90 .00034644660940675 -.0
00353553390593253 0 18 95 49 0 64 92 0 93 ?36 17 64 0 68 94 60 95 62 65 0 96 +15
 255 68 4 0 64 57 0 17 94 0 68 91 64 92 96 97 0 98 +17 60 0 68 64 66 54 71 53 0
 0 +16 65 5 0 ?64 97 0 99 0 0 36 17 96 0 0 0 0 95 94 97 0 0 -16 97 9 0 ?94 100 6
5 101 0 0 36 16 100 13 0 ?91 102 97 103 0 0 36 30 101 11 0 97 99 103 0 +.0014464
4660940676 -.00145355339059325 0 .707106781186551 -.707106781186544 0 31 255 99
 7 0 65 0 101 0 +.000700000000000022 2325613659981405e-32 0 0 0 1 -1 0 0 .000500
000000000011 31 103 15 0 100 101 104 0 +.0018 -.0011 0 0 0 1 -1 0 0 .00049999999
9999984 30 104 19 0 102 103 105 0 +.0042 -.0016 0 1 -451750905202296e-30 0 16 10
2 17 0 ?88 106 100 104 0 0 36 31 105 23 0 106 104 107 0 +.0042 -.0017 0 0 0 -1 1
 0 0 1e-4 16 106 21 0 ?85 108 102 105 0 0 36 30 107 27 0 108 105 109 0 +.0043 -.
002 0 289120579329469e-29 -1 0 16 108 25 0 ?82 110 106 107 0 0 36 30 109 31 0 11
0 107 111 0 +.0018 -.002 0 -1 1734723475976815e-31 0 16 110 29 0 ?79 112 108 109
 0 0 36 31 111 35 0 112 109 113 0 +.0018 -.001100000000000072 0 0 0 -1 1 0 0 .00
0899999999999921 16 112 33 0 ?76 114 110 111 0 0 36 30 113 39 0 114 111 58 0 +63
6038969321323e-19 -.000636396103067873 0 -.707106781186551 .707106781186544 0 16
 114 37 0 ?69 61 112 113 0 0 36 31 58 43 0 61 113 50 0 +.000700000000000022 2325
613659981405e-32 0 0 0 -1 1 0 0 .000900000000000011 16 61 41 0 ?66 53 114 58 0 0
 36 17 69 0 68 66 76 67 115 114 0 70 +17 76 0 68 69 79 72 116 112 0 115 +17 115
 0 0 0 0 72 69 114 0 0 -17 70 0 0 0 0 67 66 61 0 0 -17 79 0 68 76 82 77 117 110
 0 116 +17 116 0 0 0 0 77 76 112 0 0 -17 82 0 68 79 85 80 118 108 0 117 +17 117
 0 0 0 0 80 79 110 0 0 -17 85 0 68 82 88 83 119 106 0 118 +17 118 0 0 0 0 83 82
 108 0 0 -17 88 0 68 85 91 86 120 102 0 119 +17 119 0 0 0 0 86 85 106 0 0 -17 91
 0 68 88 94 89 98 100 0 120 +17 120 0 0 0 0 89 88 102 0 0 -17 98 0 0 0 0 92 91 1
00 0 0 -17 71 0 0 0 0 63 60 53 0 0 -14 255 57 1 121 ?0 0 68 48 49 +0 0 0 0 48 81
 1 121 123 122 57 123 0 0 0 124 80 255 1 122 125 126 9000 1 1 1 1 1 1 1 1 0 FFFF
TFTFFFFFFF1 81 1 123 107 127 57 0 121 0 0 128 82 255 1 124 1451753617 80 1 127 0
 129 8001 0 0 0 0 3 5 0 0 0 FFFFTFTFFFFFFF2 83 255 3 128 .792156862745098 .81960
7843137255 .933333333333333 79 255 15 129 SDL/TYSA_COLOUR79 14 126 SWEntUnchange
d74 4 CI16 index_map_offset0 0 1 dCCZ20 56 3 0 0 123 121 45 0 0 0 0 0 0 0 0 0 0
 0 0 0 0 0 0 0 80 1 55 130 131 8017 0 0 0 0 0 0 0 0 0 TTTTTTTTTTTTTF3 79 13 131
 SDL/TYSA_NAME81 1 34 165 55 24 0 0 0 0 0 70 35 0 4 T24 0 0 3 20 1 132 132 13 37
 83 0 24 0 133 0 0 41 133 50 38 3 0 133 0 0 0 +.000700000000000022 -232561365998
1405e-32 0 0 0 -1 -1 0 0 30 39 47 0 42 134 0 0 +-2e-4 -135525271560688e-34 0 1 0
 0 29 40 81 0 43 135 0 2e-4 -135525271560688e-34 0 19 41 82 0 24 0 0 37 V0 16 42
 45 0 ?136 0 137 39 0 0 24 18 43 79 0 136 0 138 40 ?24 17 136 0 0 0 0 43 139 42
 0 140 +18 138 76 0 141 43 142 135 ?24 17 141 0 0 0 0 138 143 137 0 139 +18 142
 73 0 144 138 145 146 ?24 29 135 78 0 138 146 40 -2e-4 -135525271560688e-34 0 29
 146 75 0 142 147 135 636038969321245e-19 .00063639610306788 0 29 147 72 0 145 1
48 146 .001163603896932144 .001736396103067875 0 18 145 70 0 149 142 150 147 ?24
 29 148 69 0 150 151 147 .0018 .002 0 18 150 67 0 152 145 153 148 ?24 29 151 66
 0 153 154 148 .0043 .002 0 18 153 64 0 155 150 156 151 ?24 29 154 63 0 156 157
 151 .0043 .0017 0 18 156 61 0 158 153 159 154 ?24 29 157 60 0 159 160 154 .0042
 .0016 0 18 159 58 0 161 156 162 157 ?24 29 160 57 0 162 163 157 .0018 .0016 0 1
8 162 55 0 164 159 165 160 ?24 29 163 54 0 165 166 160 .001446446609406748 .0014
5355339059326 0 18 165 52 0 167 162 168 163 ?24 29 166 51 0 168 0 163 .000346446
60940675 .000353553390593253 0 18 168 49 0 169 165 0 166 ?24 17 169 0 170 140 17
1 168 167 172 0 173 -15 170 4 0 140 133 0 17 140 0 170 139 169 43 173 174 0 0 -1
7 171 0 170 169 175 165 164 176 0 0 -17 167 0 0 0 0 165 169 172 0 171 +16 172 9
 0 ?167 176 174 177 0 0 24 17 173 0 0 0 0 168 140 174 0 0 +16 174 5 0 ?173 172 0
 178 0 0 24 31 178 7 0 174 0 177 0 +.000700000000000022 -2325613659981405e-32 0
 0 0 -1 -1 0 0 .000500000000000011 30 177 11 0 172 178 179 0 +.00144644660940676
 .00145355339059325 0 .707106781186551 .707106781186544 0 31 179 15 0 176 177 18
0 0 +.0018 .0011 0 0 0 -1 -1 0 0 .000499999999999984 16 176 13 0 ?164 181 172 17
9 0 0 24 30 180 19 0 181 179 182 0 +.0042 .0016 0 1 451750905202296e-30 0 16 181
 17 0 ?161 183 176 180 0 0 24 31 182 23 0 183 180 184 0 +.0042 .0017 0 0 0 1 1 0
 0 1e-4 16 183 21 0 ?158 185 181 182 0 0 24 30 184 27 0 185 182 186 0 +.0043 .00
2 0 289120579329469e-29 1 0 16 185 25 0 ?155 187 183 184 0 0 24 30 186 31 0 187
 184 188 0 +.0018 .002 0 -1 -1734723475976815e-31 0 16 187 29 0 ?152 189 185 186
 0 0 24 31 188 35 0 189 186 190 0 +.0018 .001100000000000072 0 0 0 1 1 0 0 .0008
99999999999921 16 189 33 0 ?149 191 187 188 0 0 24 30 190 39 0 191 188 134 0 +63
6038969321323e-19 .000636396103067873 0 -.707106781186551 -.707106781186544 0 16
 191 37 0 ?144 137 189 190 0 0 24 31 134 43 0 137 190 39 0 +.000700000000000022
 -2325613659981405e-32 0 0 0 1 1 0 0 .000900000000000011 16 137 41 0 ?141 42 191
 134 0 0 24 17 144 0 0 0 0 142 192 191 0 143 +17 192 0 170 193 143 145 144 191 0
 0 -17 143 0 170 192 139 142 141 137 0 0 -17 139 0 170 143 140 138 136 42 0 0 -1
7 193 0 170 194 192 150 149 189 0 0 -17 194 0 170 195 193 153 152 187 0 0 -17 14
9 0 0 0 0 145 193 189 0 192 +17 195 0 170 196 194 156 155 185 0 0 -17 152 0 0 0
 0 150 194 187 0 193 +17 196 0 170 175 195 159 158 183 0 0 -17 155 0 0 0 0 153 1
95 185 0 194 +17 175 0 170 171 196 162 161 181 0 0 -17 158 0 0 0 0 156 196 183 0
 195 +17 161 0 0 0 0 159 175 181 0 196 +17 164 0 0 0 0 162 171 176 0 175 +14 133
 1 197 ?0 0 170 37 38 +0 0 0 0 37 81 1 197 164 122 133 198 0 0 0 199 81 1 198 14
8 127 133 0 197 0 0 200 82 1 199 1477181588 83 3 200 .792156862745098 .819607843
137255 .933333333333333 74 20 132 3 0 0 198 197 34 0 0 0 0 0 0 0 0 0 0 0 0 0 0 0
 0 0 81 1 22 61 55 12 0 0 0 0 0 70 23 0 4 T12 0 0 3 20 1 201 201 13 25 34 0 12 0
 202 0 0 29 202 50 26 3 0 202 0 0 0 +0 0 0 0 0 -1 -1 0 0 30 27 19 0 30 203 0 0 +
.0058 -.002 0 1 -123908819712629e-30 0 29 28 32 0 31 204 0 .0058 -.002 0 19 29 3
3 0 12 0 0 25 V0 16 30 17 0 ?205 0 206 27 0 0 12 18 31 30 0 207 0 208 28 ?12 17
 207 0 0 0 0 31 209 210 0 205 -18 208 27 0 211 31 212 204 ?12 17 211 0 213 205 2
14 208 215 206 0 216 +18 212 24 0 214 208 217 218 ?12 29 204 29 0 208 218 28 -.0
012 -.002 0 29 218 26 0 212 219 204 -.0012 -.0024 0 29 219 23 0 217 0 218 .0058
 -.0024 0 18 217 21 0 209 212 0 219 ?12 17 209 0 213 214 205 217 207 210 0 220 +
15 213 4 0 209 202 0 17 214 0 213 211 209 212 220 221 0 215 +17 205 0 213 209 21
1 31 216 30 0 0 +16 210 5 0 ?209 221 0 222 0 0 12 17 220 0 0 0 0 217 214 221 0 0
 -16 221 9 0 ?214 206 210 223 0 0 12 16 206 13 0 ?211 30 221 203 0 0 12 30 223 1
1 0 221 222 203 0 +.0058 -.0024 0 -1 619544098563145e-31 0 30 222 7 0 210 0 223
 0 +.0058 -.002 0 216840434497101e-29 -1 0 30 203 15 0 206 223 27 0 +-.0012 -.00
2 0 0 1 0 17 216 0 0 0 0 208 205 30 0 0 -17 215 0 0 0 0 212 211 206 0 0 -14 202
 1 224 ?0 0 213 25 26 +0 0 0 0 25 81 1 224 60 122 202 225 0 0 0 226 81 1 225 51
 127 202 0 224 0 0 227 82 1 226 1468268691 83 3 227 .792156862745098 .8196078431
37255 .933333333333333 74 20 201 3 0 0 225 224 22 0 0 0 0 0 0 0 0 0 0 0 0 0 0 0
 0 0 81 1 10 81 55 7 0 0 0 0 0 70 11 0 4 T7 0 0 3 20 1 228 228 13 13 34 0 7 0 22
9 0 0 17 229 50 14 3 0 229 0 0 0 +0 0 0 0 0 -1 -1 0 0 30 15 19 0 18 230 0 0 +.00
58 .002 0 1 123908819712629e-30 0 29 16 32 0 19 231 0 .0058 .002 0 19 17 33 0 7
 0 0 13 V0 16 18 17 0 ?232 0 233 15 0 0 7 18 19 30 0 232 0 234 16 ?7 17 232 0 0
 0 0 19 235 18 0 236 +18 234 27 0 237 19 238 231 ?7 17 237 0 0 0 0 234 239 233 0
 235 +18 238 24 0 240 234 241 242 ?7 29 231 29 0 234 242 16 -.0012 .002 0 29 242
 26 0 238 243 231 -.0012 .0024 0 29 243 23 0 241 0 242 .0058 .0024 0 18 241 21 0
 244 238 0 243 ?7 17 244 0 245 236 239 241 240 246 0 247 -15 245 4 0 236 229 0 1
7 236 0 245 235 244 19 247 248 0 0 -17 239 0 245 244 235 238 237 233 0 0 -17 240
 0 0 0 0 238 244 246 0 239 +16 246 9 0 ?240 233 248 249 0 0 7 17 247 0 0 0 0 241
 236 248 0 0 +16 248 5 0 ?247 246 0 250 0 0 7 30 250 7 0 248 0 249 0 +.0058 .002
 0 216840434497101e-29 1 0 30 249 11 0 246 250 230 0 +.0058 .0024 0 -1 -61954409
8563145e-31 0 30 230 15 0 233 249 15 0 +-.0012 .002 0 0 -1 0 16 233 13 0 ?237 18
 246 230 0 0 7 17 235 0 245 239 236 234 232 18 0 0 -14 229 1 251 ?0 0 245 13 14
 +0 0 0 0 13 81 1 251 80 122 229 252 0 0 0 253 81 1 252 71 127 229 0 251 0 0 254
 82 1 253 1482424468 83 3 254 .792156862745098 .819607843137255 .933333333333333
 74 20 228 3 0 0 252 251 10 0 0 0 0 0 0 0 0 0 0 0 0 0 0 0 0 0 74 20 6 1 0 0 2 0
 0 0 0 0 0 0 0 0 0 0 0 0 0 0 0 0 0 0 80 2 5 255 256 9000 0 0 0 0 3 5 0 0 0 TFFFF
FFFFFFFFF9 1 79 18 256 MULTI_BODY_ID_20011 0 
