**ABCDEFGHIJKLMNOPQRSTUVWXYZabcdefghijklmnopqrstuvwxyz**************************
**PARASOLID !"#$%&'()*+,-./:;<=>?@[\]^_`{|}~0123456789**************************
**PART1;
MC=AMD64;
MC_MODEL=Intel64 Family 6 Model 142 Stepping 10, GenuineIntel;
MC_ID=unknown;
OS=Windows_NT;
OS_RELEASE=unknown;
FRU=Parasolid Version 31.0, build 264, 12-10-2018;
APPL=SOLIDWORKS 2019-2019057;
SITE=;
USER=unknown;
FORMAT=text;
GUISE=transmit;
KEY=AnsysSimulation_clip_setup_surface2;
FILE=AnsysSimulation_clip_setup_surface2.x_t;
DATE=Wed Apr 21 16:53:37 2021;
**PART2;
SCH=SCH_3100264_31001;
USFLD_SIZE=0;
**PART3;
**END_OF_HEADER*****************************************************************
T51 : TRANSMIT FILE created by modeller version 310026423 SCH_3100264_31001_1300
6215 0 10 20 CCCCCCCI4 mesh1006 0 I8 polyline1008 0 CCCCCCCCCCA16 mesh_offset_da
ta206 0 Z1 9 2 3 0 0 0 0 0 0 0 1e3 1e-8 0 0 0 1 0 1 4 0 81 255 2 2 9 5 1 0 0 0 0
 0 0 70 11 CI9 list_type0 0 1 uI10 notransmit0 0 1 lCCCDCCDI12 finger_index0 0 1
 dI12 finger_block1012 0 CZ3 0 4 T1 0 0 1 20 1 6 6 11 255 4 7 0 1 7 8 1 9 0 0 0
 12 34 CCCCCCI4 mesh1006 0 I8 polyline1008 0 CCCCCCCDI5 owner1040 0 CCCCCCI13 bo
undary_mesh1006 0 I17 boundary_polyline1008 0 CCCA16 index_map_offset0 0 1 dA9 i
ndex_map82 0 A17 node_id_index_map82 0 A20 schema_embedding_map82 0 A5 child12 0
 A14 lowest_node_id0 0 1 dA16 mesh_offset_data206 0 Z7 341 10 11 0 0 0 0 0 0 1e3
 1e-8 4 12 0 1 0 3 1 13 14 15 16 0 0 17 18 19 0 0 0 0 0 0 0 100 255 8 8 4 0 0 1
 0 0 0 1 0 0 0 1 0 0 0 1 0 ?11 9 5 0 1 12 20 1 21 4 0 0 12 12 81 22 23 0 0 0 0 0
 0 1e3 1e-8 9 24 7 1 0 3 1 25 26 27 28 0 0 29 30 31 0 0 0 0 0 0 0 100 20 6 9 0 0
 1 0 0 0 1 0 0 0 1 0 0 0 1 0 ?11 21 3 0 1 24 32 1 33 9 0 0 12 24 60 34 35 0 0 0
 0 0 0 1e3 1e-8 21 36 12 1 0 3 1 37 38 39 40 0 0 41 42 43 0 0 0 0 0 0 0 100 32 4
 21 0 0 1 0 0 0 1 0 0 0 1 0 0 0 1 0 ?11 33 1 0 1 36 44 1 0 21 0 0 12 36 424 45 4
6 0 0 0 0 0 0 1e3 1e-8 33 47 24 1 0 3 1 48 49 50 51 0 0 52 53 54 0 0 0 0 0 0 0 1
00 44 2 33 0 0 1 0 0 0 1 0 0 0 1 0 0 0 1 0 ?81 1 45 424 55 36 0 0 0 0 0 70 46 0
 4 T36 0 0 3 20 1 56 56 13 255 48 83 0 36 0 57 0 0 52 57 50 255 49 3 0 57 0 0 0
 +.000700000000000022 -2325613659981405e-32 0 0 0 -1 -1 0 0 31 255 50 238 0 53 5
8 0 0 +.000896446609406749 .000903553390593257 0 0 0 1 -1 0 0 5e-5 29 255 51 235
 0 54 59 0 .000848150318092296 .000890612438338131 0 19 8 CCCCCCCA5 owner12 0 Z5
2 82 0 36 0 0 48 V0 16 255 53 239 0 ?60 0 61 50 0 0 36 18 255 54 233 0 62 0 63 5
1 ?36 17 255 62 0 0 0 0 54 64 61 0 60 -18 63 225 0 65 54 66 59 ?36 17 65 0 0 0 0
 63 67 68 0 64 +18 66 219 0 69 63 70 71 ?36 29 59 229 0 63 71 51 .00083520936583
7175 .000842316147023672 0 29 71 221 0 66 72 59 .000909387561661875 .00095184968
190771 0 29 72 218 0 70 73 71 .000957683852976334 .00096479063416283 0 18 70 214
 0 74 66 75 72 ?36 29 73 202 0 75 76 72 .001558711780450755 .00156425208142424 0
 18 75 200 0 77 70 78 73 ?36 29 76 196 0 78 79 73 .0015352411609855 .00152414945
144804 0 18 78 192 0 80 75 81 76 ?36 29 79 188 0 81 82 76 .001642340741308665 .0
01598892331218755 0 18 81 186 0 83 78 84 79 ?36 29 82 185 0 84 85 79 .0016872938
17090785 .0015871317238017 0 18 84 181 0 86 81 87 82 ?36 29 85 168 0 87 88 82 .0
0308660254037845 .0016 0 18 87 164 0 89 84 90 85 ?36 29 88 160 0 90 91 85 .00304
3301270189225 .001625 0 18 90 158 0 92 87 93 88 ?36 29 91 154 0 93 94 88 .002956
698729810785 .001625 0 18 93 152 0 95 90 96 91 ?36 29 94 151 0 96 97 91 .0029133
9745962156 .0016 0 18 96 147 0 98 93 99 94 ?36 29 97 135 0 99 100 94 .0001787500
00000008 452596674755829e-19 0 18 99 133 0 101 96 102 97 ?36 29 100 129 0 102 10
3 97 15e-5 -135525271560688e-34 0 18 102 125 0 104 99 105 100 ?36 29 103 121 0 1
05 106 100 .000206818181818197 822903045010578e-19 0 18 105 117 0 107 102 108 10
3 ?36 29 106 78 0 108 109 103 -2e-4 -135525271560688e-34 0 18 108 76 0 110 105 1
11 106 ?36 29 109 75 0 111 112 106 636038969321245e-19 .00063639610306788 0 18 1
11 73 0 113 108 114 109 ?36 29 112 72 0 114 115 109 .001163603896932144 .0017363
96103067875 0 18 114 70 0 116 111 117 112 ?36 29 115 69 0 117 118 112 .0018 .002
 0 18 117 67 0 119 114 120 115 ?36 29 118 66 0 120 121 115 .0043 .002 0 18 120 6
4 0 122 117 123 118 ?36 29 121 63 0 123 124 118 .0043 .0017 0 18 123 61 0 125 12
0 126 121 ?36 29 124 60 0 126 127 121 .0042 .0016 0 18 126 58 0 128 123 129 124
 ?36 29 127 57 0 129 130 124 .0018 .0016 0 18 129 55 0 131 126 132 127 ?36 29 13
0 54 0 132 133 127 .001446446609406748 .00145355339059326 0 18 132 52 0 134 129
 135 130 ?36 29 133 51 0 135 0 130 .00034644660940675 .000353553390593253 0 18 1
35 49 0 136 132 0 133 ?36 17 136 0 0 0 0 135 137 138 0 67 +17 137 0 139 140 67 1
05 136 138 0 0 -16 138 118 0 ?136 141 0 142 0 0 36 17 67 0 139 137 64 135 65 68
 0 0 -15 255 139 240 0 60 57 0 17 64 0 139 67 60 63 62 61 0 0 +16 68 9 0 ?65 143
 141 144 141 141 36 16 143 182 0 ?131 145 68 146 145 145 36 16 141 215 0 ?134 68
 138 144 68 68 36 30 255 144 11 0 68 142 146 0 +.00144644660940676 .001453553390
59325 0 .707106781186551 .707106781186544 0 31 142 7 0 138 0 144 0 +.00070000000
0000022 -2325613659981405e-32 0 0 0 -1 -1 0 0 .000500000000000011 31 146 15 0 14
5 144 147 0 +.0018 .0011 0 0 0 -1 -1 0 0 .000499999999999984 16 145 13 0 ?80 148
 143 146 143 143 36 30 147 19 0 149 146 150 0 +.0042 .0016 0 1 451750905202296e-
30 0 16 149 17 0 ?98 151 148 147 148 148 36 31 150 23 0 151 147 152 0 +.0042 .00
17 0 0 0 1 1 0 0 1e-4 16 151 21 0 ?125 153 149 150 0 0 36 30 152 27 0 153 150 15
4 0 +.0043 .002 0 289120579329469e-29 1 0 16 153 25 0 ?122 155 151 152 0 0 36 30
 154 31 0 155 152 156 0 +.0018 .002 0 -1 -1734723475976815e-31 0 16 155 29 0 ?11
9 157 153 154 0 0 36 31 156 35 0 157 154 158 0 +.0018 .001100000000000072 0 0 0
 1 1 0 0 .000899999999999921 16 157 33 0 ?116 159 155 156 0 0 36 30 158 39 0 159
 156 160 0 +636038969321323e-19 .000636396103067873 0 -.707106781186551 -.707106
781186544 0 16 159 37 0 ?113 161 157 158 0 0 36 31 160 43 0 161 158 162 0 +.0007
00000000000022 -2325613659981405e-32 0 0 0 1 1 0 0 .000900000000000011 16 161 41
 0 ?110 163 159 160 0 0 36 30 162 47 0 163 160 164 0 +-2e-4 -135525271560688e-34
 0 1 0 0 16 163 45 0 ?104 165 161 162 0 0 36 31 164 132 0 165 162 166 0 +2e-4 -1
35525271560688e-34 0 0 0 1 -1 0 0 5e-5 16 165 134 0 ?167 168 163 164 0 0 36 31 1
66 138 0 168 164 169 0 -.000157500000000016 905193349511658e-19 0 0 0 1 -1 0 0 5
e-5 16 168 139 0 ?140 170 165 166 0 0 36 31 169 146 0 170 166 171 0 -.0029133974
5962156 .00165 0 0 0 1 -1 0 0 5e-5 16 170 153 0 ?172 173 168 169 0 0 36 31 171 1
57 0 173 169 174 0 +.003 .0016 0 0 0 1 -1 0 0 5e-5 16 173 159 0 ?175 176 170 171
 0 0 36 31 174 163 0 176 171 177 0 -.00308660254037845 .00165 0 0 0 1 -1 0 0 5e-
5 16 176 169 0 ?178 179 173 174 0 0 36 31 177 180 0 179 174 180 0 -.001676023198
79986 .00163584489618188 0 0 0 1 -1 0 0 5e-5 16 179 187 0 ?181 182 176 177 0 0 3
6 31 180 199 0 182 177 183 0 -.001508765277084045 .00156656439659285 0 0 0 1 -1
 0 0 5e-5 16 182 201 0 ?184 185 179 180 0 0 36 31 183 205 0 185 180 186 0 +.0016
0865828381747 .001561939766255635 0 0 0 1 -1 0 0 5e-5 16 185 206 0 ?187 188 182
 183 0 0 36 31 186 213 0 188 183 58 0 -.000922328513917 .001000145973222164 0 0
 0 1 -1 0 0 5e-5 16 188 220 0 ?69 61 185 186 0 0 36 31 58 232 0 61 186 50 0 -.00
0799854026777842 .000877671486083004 0 0 0 1 -1 0 0 5e-5 16 61 234 0 ?64 53 188
 58 0 0 36 17 69 0 139 60 189 66 74 188 0 190 +17 60 0 139 64 69 54 190 53 0 0 +
17 189 0 139 69 191 70 134 141 0 0 -17 74 0 0 0 0 70 69 188 0 189 -17 190 0 0 0
 0 66 60 53 0 0 -17 191 0 139 189 184 132 80 145 0 0 -17 134 0 0 0 0 132 189 141
 0 191 +17 184 0 139 191 187 78 77 182 0 0 +17 80 0 0 0 0 78 191 145 0 184 +17 1
87 0 139 184 181 75 83 185 0 0 +17 77 0 0 0 0 75 184 182 0 187 -17 181 0 139 187
 192 81 86 179 0 0 +17 83 0 0 0 0 81 187 185 0 181 -17 192 0 139 181 193 84 131
 143 0 0 -17 86 0 0 0 0 84 181 179 0 192 -17 193 0 139 192 172 129 98 149 0 0 -1
7 131 0 0 0 0 129 192 143 0 193 +17 172 0 139 193 175 96 95 170 0 0 +17 98 0 0 0
 0 96 193 149 0 172 +17 175 0 139 172 178 93 92 173 0 0 +17 95 0 0 0 0 93 172 17
0 0 175 -17 178 0 139 175 194 90 89 176 0 0 +17 92 0 0 0 0 90 175 173 0 178 -17
 194 0 139 178 195 87 128 148 0 0 -17 89 0 0 0 0 87 178 176 0 194 -17 195 0 139
 194 196 126 125 151 0 0 -17 128 0 0 0 0 126 194 148 0 195 +16 148 165 0 ?128 14
9 145 147 149 149 36 17 196 0 139 195 197 123 122 153 0 0 -17 125 0 0 0 0 123 19
5 151 0 196 +17 197 0 139 196 198 120 119 155 0 0 -17 122 0 0 0 0 120 196 153 0
 197 +17 198 0 139 197 199 117 116 157 0 0 -17 119 0 0 0 0 117 197 155 0 198 +17
 199 0 139 198 200 114 113 159 0 0 -17 116 0 0 0 0 114 198 157 0 199 +17 200 0 1
39 199 201 111 110 161 0 0 -17 113 0 0 0 0 111 199 159 0 200 +17 201 0 139 200 1
67 108 104 163 0 0 -17 110 0 0 0 0 108 200 161 0 201 +17 167 0 139 201 140 102 1
01 165 0 0 +17 104 0 0 0 0 102 201 163 0 167 +17 140 0 139 167 137 99 107 168 0
 0 +17 101 0 0 0 0 99 167 165 0 140 -17 107 0 0 0 0 105 140 168 0 137 -14 255 57
 1 202 ?0 0 139 48 49 +0 0 0 0 48 81 1 202 423 203 57 204 0 0 0 205 80 255 1 203
 206 207 9000 1 1 1 1 1 1 1 1 0 FFFFTFTFFFFFFF1 81 1 204 393 208 57 0 202 0 0 20
9 82 255 1 205 1045430482 80 1 208 0 210 8001 0 0 0 0 3 5 0 0 0 FFFFTFTFFFFFFF2
 83 255 3 209 .792156862745098 .819607843137255 .933333333333333 79 255 15 210 S
DL/TYSA_COLOUR79 14 207 SWEntUnchanged74 4 CI16 index_map_offset0 0 1 dCCZ20 56
 3 0 0 204 202 45 0 0 0 0 0 0 0 0 0 0 0 0 0 0 0 0 0 80 1 55 211 212 8017 0 0 0 0
 0 0 0 0 0 TTTTTTTTTTTTTF3 79 13 212 SDL/TYSA_NAME81 1 34 60 55 24 0 0 0 0 0 70
 35 0 4 T24 0 0 3 20 1 213 213 13 37 34 0 24 0 214 0 0 41 214 50 38 3 0 214 0 0
 0 +0 0 0 0 0 -1 -1 0 0 30 39 19 0 42 215 0 0 +.0058 -.002 0 1 -123908819712629e
-30 0 29 40 32 0 43 216 0 .0058 -.002 0 19 41 33 0 24 0 0 37 V0 16 42 17 0 ?217
 0 218 39 0 0 24 18 43 30 0 219 0 220 40 ?24 17 219 0 0 0 0 43 221 222 0 217 -18
 220 27 0 223 43 224 216 ?24 17 223 0 225 217 226 220 227 218 0 228 +18 224 24 0
 226 220 229 230 ?24 29 216 29 0 220 230 40 -.0012 -.002 0 29 230 26 0 224 231 2
16 -.0012 -.0024 0 29 231 23 0 229 0 230 .0058 -.0024 0 18 229 21 0 221 224 0 23
1 ?24 17 221 0 225 226 217 229 219 222 0 232 +15 225 4 0 221 214 0 17 226 0 225
 223 221 224 232 233 0 227 +17 217 0 225 221 223 43 228 42 0 0 +16 222 5 0 ?221
 233 0 234 0 0 24 17 232 0 0 0 0 229 226 233 0 0 -16 233 9 0 ?226 218 222 235 0
 0 24 16 218 13 0 ?223 42 233 215 0 0 24 30 235 11 0 233 234 215 0 +.0058 -.0024
 0 -1 619544098563145e-31 0 30 234 7 0 222 0 235 0 +.0058 -.002 0 21684043449710
1e-29 -1 0 30 215 15 0 218 235 39 0 +-.0012 -.002 0 0 1 0 17 228 0 0 0 0 220 217
 42 0 0 -17 227 0 0 0 0 224 223 218 0 0 -14 214 1 236 ?0 0 225 37 38 +0 0 0 0 37
 81 1 236 59 203 214 237 0 0 0 238 81 1 237 50 208 214 0 236 0 0 239 82 1 238 14
68268691 83 3 239 .792156862745098 .819607843137255 .933333333333333 74 20 213 3
 0 0 237 236 34 0 0 0 0 0 0 0 0 0 0 0 0 0 0 0 0 0 81 1 22 81 55 12 0 0 0 0 0 70
 23 0 4 T12 0 0 3 20 1 240 240 13 25 34 0 12 0 241 0 0 29 241 50 26 3 0 241 0 0
 0 +0 0 0 0 0 -1 -1 0 0 30 27 19 0 30 242 0 0 +.0058 .002 0 1 123908819712629e-3
0 0 29 28 32 0 31 243 0 .0058 .002 0 19 29 33 0 12 0 0 25 V0 16 30 17 0 ?244 0 2
45 27 0 0 12 18 31 30 0 244 0 246 28 ?12 17 244 0 0 0 0 31 247 30 0 248 +18 246
 27 0 249 31 250 243 ?12 17 249 0 0 0 0 246 251 245 0 247 +18 250 24 0 252 246 2
53 254 ?12 29 243 29 0 246 254 28 -.0012 .002 0 29 254 26 0 250 255 243 -.0012 .
0024 0 29 255 23 0 253 0 254 .0058 .0024 0 18 253 21 0 256 250 0 255 ?12 17 256
 0 257 248 251 253 252 258 0 259 -15 257 4 0 248 241 0 17 248 0 257 247 256 31 2
59 260 0 0 -17 251 0 257 256 247 250 249 245 0 0 -17 252 0 0 0 0 250 256 258 0 2
51 +16 258 9 0 ?252 245 260 261 0 0 12 17 259 0 0 0 0 253 248 260 0 0 +16 260 5
 0 ?259 258 0 262 0 0 12 30 262 7 0 260 0 261 0 +.0058 .002 0 216840434497101e-2
9 1 0 30 261 11 0 258 262 242 0 +.0058 .0024 0 -1 -619544098563145e-31 0 30 242
 15 0 245 261 27 0 +-.0012 .002 0 0 -1 0 16 245 13 0 ?249 30 258 242 0 0 12 17 2
47 0 257 251 248 246 244 30 0 0 -14 241 1 263 ?0 0 257 25 26 +0 0 0 0 25 81 1 26
3 80 203 241 264 0 0 0 265 81 1 264 71 208 241 0 263 0 0 266 82 1 265 1053556946
 83 3 266 .792156862745098 .819607843137255 .933333333333333 74 20 240 3 0 0 264
 263 22 0 0 0 0 0 0 0 0 0 0 0 0 0 0 0 0 0 81 1 10 341 55 7 0 0 0 0 0 70 11 0 4 T
7 0 0 3 20 1 267 267 13 13 83 0 7 0 268 0 0 17 268 50 14 3 0 268 0 0 0 +.0007000
00000000022 2325613659981405e-32 0 0 0 -1 -1 0 0 31 15 238 0 18 269 0 0 +.000896
446609406749 -.000903553390593257 0 0 0 -1 -1 0 0 5e-5 29 16 235 0 19 270 0 .000
848150318092296 -.000890612438338131 0 19 17 82 0 7 0 0 13 V0 16 18 239 0 ?271 0
 272 15 0 0 7 18 19 233 0 273 0 274 16 ?7 17 273 0 275 276 277 19 278 272 0 271
 -18 274 225 0 278 19 279 270 ?7 17 278 0 0 0 0 274 273 272 0 277 +18 279 219 0
 276 274 280 281 ?7 29 270 229 0 274 281 16 .000835209365837175 -.00084231614702
3672 0 29 281 221 0 279 282 270 .000909387561661875 -.00095184968190771 0 29 282
 218 0 280 283 281 .000957683852976334 -.00096479063416283 0 18 280 214 0 284 27
9 285 282 ?7 29 283 202 0 285 286 282 .001558711780450755 -.00156425208142424 0
 18 285 200 0 287 280 288 283 ?7 29 286 196 0 288 289 283 .0015352411609855 -.00
152414945144804 0 18 288 192 0 290 285 291 286 ?7 29 289 188 0 291 292 286 .0016
42340741308665 -.001598892331218755 0 18 291 186 0 293 288 294 289 ?7 29 292 185
 0 294 295 289 .001687293817090785 -.0015871317238017 0 18 294 181 0 296 291 297
 292 ?7 29 295 168 0 297 298 292 .00308660254037845 -.0016 0 18 297 164 0 299 29
4 300 295 ?7 29 298 160 0 300 301 295 .003043301270189225 -.001625 0 18 300 158
 0 302 297 303 298 ?7 29 301 154 0 303 304 298 .002956698729810785 -.001625 0 18
 303 152 0 305 300 306 301 ?7 29 304 151 0 306 307 301 .00291339745962156 -.0016
 0 18 306 147 0 308 303 309 304 ?7 29 307 135 0 309 310 304 .000178750000000008
 -452596674755829e-19 0 18 309 133 0 311 306 312 307 ?7 29 310 129 0 312 313 307
 15e-5 135525271560688e-34 0 18 312 125 0 314 309 315 310 ?7 29 313 121 0 315 31
6 310 .000206818181818197 -822903045010578e-19 0 18 315 117 0 317 312 318 313 ?7
 29 316 78 0 318 319 313 -2e-4 135525271560688e-34 0 18 318 76 0 320 315 321 316
 ?7 29 319 75 0 321 322 316 636038969321245e-19 -.00063639610306788 0 18 321 73
 0 323 318 324 319 ?7 29 322 72 0 324 325 319 .001163603896932144 -.001736396103
067875 0 18 324 70 0 326 321 327 322 ?7 29 325 69 0 327 328 322 .0018 -.002 0 18
 327 67 0 329 324 330 325 ?7 29 328 66 0 330 331 325 .0043 -.002 0 18 330 64 0 3
32 327 333 328 ?7 29 331 63 0 333 334 328 .0043 -.0017 0 18 333 61 0 335 330 336
 331 ?7 29 334 60 0 336 337 331 .0042 -.0016 0 18 336 58 0 338 333 339 334 ?7 29
 337 57 0 339 340 334 .0018 -.0016 0 18 339 55 0 341 336 342 337 ?7 29 340 54 0
 342 343 337 .001446446609406748 -.00145355339059326 0 18 342 52 0 344 339 345 3
40 ?7 29 343 51 0 345 0 340 .00034644660940675 -.000353553390593253 0 18 345 49
 0 346 342 0 343 ?7 17 346 0 275 277 317 345 347 348 0 349 +15 275 240 0 276 268
 0 17 277 0 275 273 346 274 349 350 0 0 +17 317 0 275 346 311 315 351 352 0 347
 -17 347 0 0 0 0 315 346 348 0 0 -16 348 118 0 ?346 353 0 354 0 0 7 17 349 0 0 0
 0 345 277 350 0 0 -16 350 9 0 ?277 355 353 356 353 353 7 16 355 182 0 ?341 357
 350 358 357 357 7 16 353 215 0 ?344 350 348 356 350 350 7 30 356 11 0 350 354 3
58 0 +.00144644660940676 -.00145355339059325 0 .707106781186551 -.70710678118654
4 0 31 354 7 0 348 0 356 0 +.000700000000000022 2325613659981405e-32 0 0 0 1 -1
 0 0 .000500000000000011 31 358 15 0 357 356 359 0 +.0018 -.0011 0 0 0 1 -1 0 0
 .000499999999999984 16 357 13 0 ?360 361 355 358 355 355 7 30 359 19 0 362 358
 363 0 +.0042 -.0016 0 1 -451750905202296e-30 0 16 362 17 0 ?364 365 361 359 361
 361 7 31 363 23 0 365 359 366 0 +.0042 -.0017 0 0 0 -1 1 0 0 1e-4 16 365 21 0 ?
335 367 362 363 0 0 7 30 366 27 0 367 363 368 0 +.0043 -.002 0 289120579329469e-
29 -1 0 16 367 25 0 ?332 369 365 366 0 0 7 30 368 31 0 369 366 370 0 +.0018 -.00
2 0 -1 1734723475976815e-31 0 16 369 29 0 ?329 371 367 368 0 0 7 31 370 35 0 371
 368 372 0 +.0018 -.001100000000000072 0 0 0 -1 1 0 0 .000899999999999921 16 371
 33 0 ?326 373 369 370 0 0 7 30 372 39 0 373 370 374 0 +636038969321323e-19 -.00
0636396103067873 0 -.707106781186551 .707106781186544 0 16 373 37 0 ?323 375 371
 372 0 0 7 31 374 43 0 375 372 376 0 +.000700000000000022 2325613659981405e-32 0
 0 0 -1 1 0 0 .000900000000000011 16 375 41 0 ?320 377 373 374 0 0 7 30 376 47 0
 377 374 378 0 +-2e-4 135525271560688e-34 0 1 0 0 16 377 45 0 ?379 380 375 376 0
 0 7 31 378 132 0 380 376 381 0 +2e-4 135525271560688e-34 0 0 0 -1 -1 0 0 5e-5 1
6 380 134 0 ?314 352 377 378 0 0 7 31 381 138 0 352 378 382 0 -.0001575000000000
16 -905193349511658e-19 0 0 0 -1 -1 0 0 5e-5 16 352 139 0 ?351 383 380 381 0 0 7
 31 382 146 0 383 381 384 0 -.00291339745962156 -.00165 0 0 0 -1 -1 0 0 5e-5 16
 383 153 0 ?308 385 352 382 0 0 7 31 384 157 0 385 382 386 0 +.003 -.0016 0 0 0
 -1 -1 0 0 5e-5 16 385 159 0 ?387 388 383 384 0 0 7 31 386 163 0 388 384 389 0 -
.00308660254037845 -.00165 0 0 0 -1 -1 0 0 5e-5 16 388 169 0 ?390 391 385 386 0
 0 7 31 389 180 0 391 386 392 0 -.00167602319879986 -.00163584489618188 0 0 0 -1
 -1 0 0 5e-5 16 391 187 0 ?393 394 388 389 0 0 7 31 392 199 0 394 389 395 0 -.00
1508765277084045 -.00156656439659285 0 0 0 -1 -1 0 0 5e-5 16 394 201 0 ?290 396
 391 392 0 0 7 31 395 205 0 396 392 397 0 +.00160865828381747 -.0015619397662556
35 0 0 0 -1 -1 0 0 5e-5 16 396 206 0 ?398 399 394 395 0 0 7 31 397 213 0 399 395
 269 0 -.000922328513917 -.001000145973222164 0 0 0 -1 -1 0 0 5e-5 16 399 220 0
 ?400 272 396 397 0 0 7 31 269 232 0 272 397 15 0 -.000799854026777842 -.0008776
71486083004 0 0 0 -1 -1 0 0 5e-5 16 272 234 0 ?278 18 399 269 0 0 7 17 400 0 0 0
 0 279 284 399 0 0 +17 284 0 275 344 276 280 400 399 0 401 -17 344 0 275 360 284
 342 401 353 0 402 +17 276 0 275 284 273 279 271 18 0 400 -17 401 0 0 0 0 280 34
4 353 0 0 -17 271 0 0 0 0 19 276 18 0 0 +17 360 0 275 287 344 288 402 357 0 0 +1
7 402 0 0 0 0 342 360 357 0 0 -17 287 0 275 293 360 285 290 394 0 398 -17 293 0
 275 296 287 291 398 396 0 393 -17 290 0 0 0 0 288 287 394 0 360 +17 398 0 0 0 0
 285 293 396 0 0 +17 296 0 275 341 293 294 393 391 0 403 -17 393 0 0 0 0 291 296
 391 0 0 +17 341 0 275 364 296 339 403 355 0 404 +17 403 0 0 0 0 294 341 355 0 0
 -17 364 0 275 305 341 306 404 362 0 0 +17 404 0 0 0 0 339 364 362 0 0 -17 305 0
 275 302 364 303 308 383 0 387 -17 302 0 275 299 305 300 387 385 0 390 -17 308 0
 0 0 0 306 305 383 0 364 +17 387 0 0 0 0 303 302 385 0 0 +17 299 0 275 338 302 2
97 390 388 0 405 -17 390 0 0 0 0 300 299 388 0 0 +17 338 0 275 335 299 336 405 3
61 0 406 +17 405 0 0 0 0 297 338 361 0 0 -16 361 165 0 ?338 362 357 359 362 362
 7 17 335 0 275 332 338 333 406 365 0 407 +17 406 0 0 0 0 336 335 365 0 0 -17 33
2 0 275 329 335 330 407 367 0 408 +17 407 0 0 0 0 333 332 367 0 0 -17 329 0 275
 326 332 327 408 369 0 409 +17 408 0 0 0 0 330 329 369 0 0 -17 326 0 275 323 329
 324 409 371 0 410 +17 409 0 0 0 0 327 326 371 0 0 -17 323 0 275 320 326 321 410
 373 0 411 +17 410 0 0 0 0 324 323 373 0 0 -17 320 0 275 379 323 318 411 375 0 4
12 +17 411 0 0 0 0 321 320 375 0 0 -17 379 0 275 311 320 312 412 377 0 0 +17 412
 0 0 0 0 318 379 377 0 0 -17 311 0 275 317 379 309 314 380 0 351 -17 314 0 0 0 0
 312 311 380 0 379 +17 351 0 0 0 0 309 317 352 0 0 +14 268 1 413 ?0 0 275 13 14
 +0 0 0 0 13 81 1 413 340 203 268 414 0 0 0 415 81 1 414 310 208 268 0 413 0 0 4
16 82 1 415 658768081 83 3 416 .792156862745098 .819607843137255 .93333333333333
3 74 20 267 3 0 0 414 413 10 0 0 0 0 0 0 0 0 0 0 0 0 0 0 0 0 0 74 20 6 1 0 0 2 0
 0 0 0 0 0 0 0 0 0 0 0 0 0 0 0 0 0 0 80 2 5 417 418 9000 0 0 0 0 3 5 0 0 0 TFFFF
FFFFFFFFF9 1 79 18 418 MULTI_BODY_ID_20011 0 
