**ABCDEFGHIJKLMNOPQRSTUVWXYZabcdefghijklmnopqrstuvwxyz**************************
**PARASOLID !"#$%&'()*+,-./:;<=>?@[\]^_`{|}~0123456789**************************
**PART1;
MC=AMD64;
MC_MODEL=Intel64 Family 6 Model 142 Stepping 10, GenuineIntel;
MC_ID=unknown;
OS=Windows_NT;
OS_RELEASE=unknown;
FRU=Parasolid Version 31.0, build 264, 12-10-2018;
APPL=SOLIDWORKS 2019-2019057;
SITE=;
USER=unknown;
FORMAT=text;
GUISE=transmit;
KEY=medium_clip;
FILE=medium_clip.x_t;
DATE=Thu Sep  9 22:24:48 2021;
**PART2;
SCH=SCH_3100264_31001;
USFLD_SIZE=0;
**PART3;
**END_OF_HEADER*****************************************************************
T51 : TRANSMIT FILE created by modeller version 310026423 SCH_3100264_31001_1300
6215 0 12 34 CCCCCCI4 mesh1006 0 I8 polyline1008 0 CCCCCCCDI5 owner1040 0 CCCCCC
I13 boundary_mesh1006 0 I17 boundary_polyline1008 0 CCCA16 index_map_offset0 0 1
 dA9 index_map82 0 A17 node_id_index_map82 0 A20 schema_embedding_map82 0 A5 chi
ld12 0 A14 lowest_node_id0 0 1 dA16 mesh_offset_data206 0 Z1 1773 2 3 0 0 0 0 0
 0 1e3 1e-8 0 4 0 1 0 1 1 5 6 7 8 0 0 9 10 11 0 0 0 0 0 0 0 81 255 2 2 1754 12 1
 13 0 0 0 0 14 70 11 CI9 list_type0 0 1 uI10 notransmit0 0 1 lCCCDCCDI12 finger_
index0 0 1 dI12 finger_block1012 0 CZ3 0 4 T1 0 0 9 20 1 15 15 13 255 5 225 0 1
 0 16 0 0 17 0 51 255 6 1497 0 18 19 0 0 +.00421325157077423 8e-4 -.000377218110
0472325 0 -1 0 1e-4 0 0 -1 30 255 7 1577 0 10 20 0 0 +.000150000000000046 -.0092
 0 0 1 0 29 255 8 1590 0 11 21 0 -2e-4 8e-4 0 19 8 CCCCCCCA5 owner12 0 Z9 75 0 1
 17 0 22 V0 16 255 10 1575 0 ?23 0 24 7 0 0 1 18 255 11 1588 0 25 0 26 8 ?1 17 2
55 25 0 27 28 29 11 30 31 0 32 -18 26 1580 0 33 11 34 21 ?1 17 33 0 35 36 37 26
 38 39 0 29 -18 34 1572 0 40 26 41 42 ?1 29 21 1582 0 26 42 8 -2e-4 0 0 29 42 15
74 0 34 43 21 .000150000000000046 0 -962964972193618e-49 29 43 1379 0 41 44 42 .
00421325157077423 8e-4 -.000477218110047233 18 41 1377 0 45 34 46 43 ?1 29 44 13
71 0 46 47 43 .00421325157077423 8e-4 -772181100472352e-19 18 46 1369 0 48 41 49
 44 ?1 29 47 1344 0 49 50 44 .00421325157077423 0 -772181100472352e-19 18 49 134
2 0 51 46 52 47 ?1 29 50 1341 0 52 53 47 .00421325157077423 0 -.0004772181100472
33 18 52 1339 0 54 49 55 50 ?1 29 53 1316 0 55 56 50 .00431325157077423 8e-4 -.0
003772181100472325 18 55 1314 0 57 52 58 53 ?1 29 56 1313 0 58 59 53 .0043132515
7077423 8e-4 -.0001772181100472355 18 58 1311 0 60 55 61 56 ?1 29 59 1310 0 61 6
2 56 .00431325157077423 0 -.0003772181100472325 18 61 1308 0 63 58 64 59 ?1 29 6
2 1307 0 64 65 59 .00431325157077423 0 -.0001772181100472355 18 64 1305 0 66 61
 67 62 ?1 29 65 577 0 67 68 62 .00175889558962426 0 -763454868889779e-19 18 67 5
75 0 69 64 70 65 ?1 29 68 571 0 70 71 65 .00097683398885906 0 -626945508697608e-
19 18 70 569 0 72 67 73 68 ?1 29 71 565 0 73 74 68 .003013251570774245 0 -772181
100472346e-19 18 73 563 0 75 70 76 71 ?1 29 74 167 0 77 78 71 .00024214641710322
5 0 -.0004499314628203765 18 77 146 0 79 80 81 74 ?1 29 78 168 0 81 82 74 .00179
7544404980705 0 -.000477081035687986 18 81 147 0 83 77 84 78 ?1 29 82 169 0 84 8
5 78 .00181325157077426 0 -.000477218110047232 18 84 148 0 86 81 87 82 ?1 29 85
 174 0 87 88 82 .000249127379678136 0 -499923847578196e-19 18 87 153 0 89 84 90
 85 ?1 29 88 68 0 76 91 85 .000242146417103225 8e-4 -.0004499314628203765 18 76
 66 0 92 73 93 88 ?1 29 91 65 0 93 94 88 .001797544404980705 8e-4 -.000477081035
687986 18 93 63 0 95 76 96 91 ?1 29 94 62 0 96 97 91 .00181325157077426 8e-4 -.0
00477218110047232 18 96 60 0 98 93 80 94 ?1 29 97 47 0 80 99 94 .000249127379678
136 8e-4 -499923847578196e-19 18 80 45 0 100 96 77 97 ?1 29 99 877 0 90 101 97 .
0002250000000000225 0 -4330127018923495e-20 18 90 699 0 102 87 103 99 ?1 29 101
 878 0 103 104 99 .0002250000000000225 8e-4 -4330127018923495e-20 18 103 698 0 1
05 90 106 101 ?1 29 104 881 0 106 107 101 .001858888299400445 0 -772181100472342
e-19 18 106 739 0 108 103 109 104 ?1 29 107 882 0 109 110 104 .00175889558962426
 8e-4 -763454868889779e-19 18 109 741 0 111 106 112 107 ?1 29 110 883 0 112 113
 107 .001858888299400445 8e-4 -772181100472342e-19 18 112 738 0 114 109 115 110
 ?1 29 113 885 0 115 116 110 .003113251570774245 0 -772181100472347e-19 18 115 7
75 0 117 112 118 113 ?1 29 116 886 0 118 119 113 .003013251570774245 8e-4 -77218
1100472346e-19 18 118 777 0 120 115 121 116 ?1 29 119 887 0 121 122 116 .0031132
51570774245 8e-4 -772181100472347e-19 18 121 774 0 123 118 124 119 ?1 29 122 889
 0 124 125 119 .0010768187583747 0 -644397915134885e-19 18 124 811 0 126 121 127
 122 ?1 29 125 890 0 127 128 122 .00097683398885906 8e-4 -626945508697608e-19 18
 127 813 0 129 124 130 125 ?1 29 128 891 0 130 131 125 .0010768187583747 8e-4 -6
44397915134885e-19 18 130 810 0 132 127 133 128 ?1 29 131 1639 0 133 0 128 .0001
50000000000046 8e-4 0 18 133 1614 0 134 130 0 131 ?1 17 134 0 135 40 105 133 136
 137 0 138 +15 255 135 1576 0 40 139 0 17 40 0 135 102 134 34 23 10 0 37 -17 105
 0 135 134 102 103 140 141 0 136 -17 136 0 142 100 138 103 134 137 0 143 -16 137
 685 0 ?134 144 145 146 0 0 1 17 138 0 142 136 32 133 147 148 0 23 +15 142 645 0
 32 149 0 17 32 0 142 138 92 11 28 150 0 147 +17 147 0 151 30 23 11 138 148 0 0
 -16 148 1609 0 ?138 31 39 152 0 0 1 17 23 0 151 147 38 133 40 10 0 0 +15 151 16
20 0 147 153 0 17 38 0 151 23 30 34 33 39 0 0 +17 30 0 151 38 147 26 25 31 0 0 +
16 39 1603 0 ?38 148 0 154 0 0 1 30 154 1632 0 39 0 152 0 +25e-5 0 0 1 0 0 30 15
2 1631 0 148 154 155 0 +25e-5 8e-4 0 1 0 0 30 155 1630 0 31 152 146 0 +-2e-4 8e-
4 0 0 -1 0 16 31 1602 0 ?30 156 148 155 0 0 1 31 255 146 872 0 137 155 157 0 +.0
00200000000000046 8e-4 57069694054943e-32 0 1 0 0 0 1 5e-5 31 157 870 0 145 146
 158 0 +.001808888303025075 8e-4 -771990715793198e-19 0 1 0 0 0 1 5e-5 16 145 72
1 0 ?111 137 159 157 0 0 1 31 158 868 0 159 157 160 0 +.003063251570774245 8e-4
 -772181100472346e-19 0 1 0 0 0 1 5e-5 16 159 761 0 ?120 145 156 158 0 0 1 31 16
0 866 0 156 158 161 0 +.00102682637361688 8e-4 -635671711916247e-19 0 1 0 0 0 1
 5e-5 16 156 797 0 ?129 159 31 160 0 0 1 30 161 865 0 144 160 162 0 -.0010768187
583747 -.0092 -644397915134885e-19 0 1 0 16 144 803 0 ?163 164 137 161 0 0 1 30
 162 864 0 164 161 165 0 +.00097683398885906 -.0092 -626945508697608e-19 0 1 0 1
6 164 802 0 ?166 167 144 162 0 0 1 30 165 863 0 167 162 168 0 -.0031132515707742
45 -.0092 -772181100472347e-19 0 1 0 16 167 767 0 ?169 170 164 165 0 0 1 30 168
 862 0 170 165 171 0 +.003013251570774245 -.0092 -772181100472346e-19 0 1 0 16 1
70 766 0 ?172 173 167 168 0 0 1 30 171 861 0 173 168 174 0 -.001858888299400445
 -.0092 -772181100472342e-19 0 1 0 16 173 729 0 ?175 176 170 171 0 0 1 30 174 86
0 0 176 171 177 0 +.00175889558962426 -.0092 -763454868889779e-19 0 1 0 16 176 7
28 0 ?178 141 173 174 0 0 1 30 177 858 0 141 174 179 0 -.0002250000000000225 -.0
042 -4330127018923495e-20 0 1 0 16 141 689 0 ?140 180 176 177 0 0 1 31 179 7 0 1
81 177 182 0 +25e-5 8e-4 -3673940397442895e-35 0 -1 0 0 0 1 5e-5 16 181 606 0 ?1
00 183 184 179 0 0 1 30 182 11 0 185 179 186 0 +.001804525367555625 8e-4 -771419
576254298e-19 .999847695156391 0 -.01745240643727685 16 185 9 0 ?187 188 183 182
 183 183 1 30 186 19 0 188 182 189 0 +.00431325157077423 8e-4 -772181100472352e-
19 1 0 -4282598581317795e-31 16 188 624 0 ?190 191 185 186 191 191 1 30 189 23 0
 192 186 193 0 +.00431325157077423 8e-4 -.000477218110047233 0 0 -1 16 192 1312
 0 ?194 195 191 189 0 0 1 30 193 27 0 195 189 196 0 +.00181325157077426 8e-4 -.0
00477218110047232 -1 0 303576608295945e-30 16 195 1378 0 ?98 197 192 193 0 0 1 3
1 196 31 0 197 193 198 0 +.00181325157077426 8e-4 .0004227818899676235 0 1 0 0 0
 -1 .000900000000014856 16 197 29 0 ?95 199 195 196 0 0 1 30 198 35 0 199 196 20
0 0 +.0002421464171032255 8e-4 -.000449931462820376 -.999847695156391 0 .0174524
0643727705 16 199 33 0 ?92 150 197 198 0 0 1 31 200 39 0 150 198 201 0 +25e-5 8e
-4 -3673940397442895e-35 0 1 0 0 0 -1 45e-5 16 150 37 0 ?32 202 199 200 0 0 1 31
 201 164 0 180 200 203 0 +25e-5 0 -3673940397442895e-35 0 -1 0 0 0 1 5e-5 16 180
 558 0 ?89 204 141 201 0 0 1 30 203 163 0 205 201 206 0 +.001804525367555625 0 -
771419576254298e-19 .999847695156391 0 -.01745240643727685 16 205 136 0 ?207 208
 204 203 204 204 1 30 206 161 0 208 203 209 0 +.00431325157077423 0 -77218110047
2352e-19 1 0 -4282598581317795e-31 16 208 567 0 ?210 211 205 206 211 211 1 30 20
9 160 0 212 206 213 0 +.00431325157077423 0 -.000477218110047233 0 0 -1 16 212 1
306 0 ?214 215 211 209 0 0 1 30 213 159 0 215 209 216 0 +.00181325157077426 0 -.
000477218110047232 -1 0 303576608295945e-30 16 215 1340 0 ?86 217 212 213 0 0 1
 31 216 158 0 217 213 218 0 +.00181325157077426 0 .0004227818899676235 0 1 0 0 0
 -1 .000900000000014856 16 217 116 0 ?83 219 215 216 0 0 1 30 218 157 0 219 216
 220 0 +.0002421464171032255 0 -.000449931462820376 -.999847695156391 0 .0174524
0643727705 16 219 112 0 ?79 184 217 218 0 0 1 31 220 156 0 184 218 221 0 +25e-5
 0 -3673940397442895e-35 0 1 0 0 0 -1 45e-5 16 184 108 0 ?29 181 219 220 0 0 1 3
0 221 217 0 202 220 222 0 +.000242146417103225 8e-4 -.0004499314628203765 0 -1 0
 16 202 177 0 ?223 224 150 221 0 0 1 30 222 218 0 224 221 225 0 +.00179754440498
0705 8e-4 -.000477081035687986 0 -1 0 16 224 178 0 ?226 227 202 222 0 0 1 30 225
 219 0 227 222 228 0 +.00181325157077426 8e-4 -.000477218110047232 0 -1 0 16 227
 179 0 ?229 230 224 225 0 0 1 30 228 224 0 230 225 231 0 +.000249127379678136 8e
-4 -499923847578196e-19 0 -1 0 16 230 184 0 ?232 233 227 228 0 0 1 31 231 580 0
 233 228 234 0 +.00102682637361688 0 -635671711916247e-19 0 1 0 0 0 1 5e-5 16 23
3 578 0 ?235 236 230 231 0 0 1 31 234 586 0 236 231 237 0 +.003063251570774245 0
 -772181100472346e-19 0 1 0 0 0 1 5e-5 16 236 584 0 ?238 239 233 234 0 0 1 31 23
7 592 0 239 234 240 0 +.001808888303025075 0 -771990715793198e-19 0 1 0 0 0 1 5e
-5 16 239 590 0 ?241 242 236 237 0 0 1 31 240 598 0 242 237 243 0 +.000200000000
000046 0 57069694054943e-32 0 1 0 0 0 1 5e-5 16 242 596 0 ?37 244 239 240 0 0 1
 30 243 1319 0 244 240 245 0 -.00431325157077423 8e-4 -.0003772181100472325 0 -1
 0 16 244 1317 0 ?57 246 242 243 0 0 1 30 245 1324 0 246 243 247 0 +.00431325157
077423 8e-4 -.000177218110047235 0 -1 0 16 246 1322 0 ?248 249 244 245 0 0 1 31
 247 1359 0 249 245 250 0 -.00421325157077423 0 -.0003772181100472325 0 1 0 0 0
 1 1e-4 16 249 1357 0 ?63 251 246 247 0 0 1 31 250 1365 0 251 247 252 0 -.004213
25157077423 0 -.000177218110047235 0 1 0 0 0 1 1e-4 16 251 1363 0 ?51 253 249 25
0 0 0 1 30 252 1374 0 253 250 254 0 -.00421325157077423 8e-4 -772181100472352e-1
9 0 -1 0 16 253 1372 0 ?48 255 251 252 0 0 1 31 254 1406 0 255 252 256 0 +.00421
325157077423 8e-4 -.0003772181100472325 0 1 0 0 0 1 1e-4 16 255 1404 0 ?45 257 2
53 254 0 0 1 31 256 1412 0 257 254 20 0 +.00421325157077423 8e-4 -.0001772181100
47235 0 1 0 0 0 1 1e-4 16 257 1410 0 ?60 24 255 256 0 0 1 30 20 1418 0 24 256 7
 0 +.00421325157077423 8e-4 -.000477218110047233 0 -1 0 16 24 1416 0 ?258 10 257
 20 0 0 1 17 258 0 259 86 260 52 261 24 0 262 +15 259 193 0 260 263 0 17 86 0 25
9 264 258 84 262 215 0 229 +17 260 0 259 258 264 41 98 195 0 261 -17 261 0 265 2
66 54 41 258 24 0 0 -17 262 0 35 63 267 52 86 215 0 0 -15 35 1584 0 33 268 0 17
 63 0 35 269 262 61 54 249 0 214 +17 267 0 35 262 270 84 83 217 0 0 -17 270 0 35
 267 36 81 79 219 0 0 -17 83 0 271 272 229 81 267 217 0 226 +15 271 191 0 83 273
 0 17 272 0 271 274 83 93 226 224 0 275 -17 229 0 271 83 274 84 264 227 0 267 +1
7 226 0 276 79 275 81 272 224 0 270 +15 276 189 0 79 277 0 17 79 0 276 278 226 7
7 270 219 0 223 +17 275 0 276 226 278 93 92 199 0 0 -17 278 0 276 275 79 76 223
 202 0 28 -17 92 0 142 32 95 76 275 199 0 278 +17 95 0 142 92 98 93 274 197 0 27
2 +17 98 0 142 95 45 96 260 195 0 264 +17 274 0 271 229 272 96 95 197 0 0 -17 45
 0 142 98 194 41 266 255 0 260 +17 264 0 259 260 86 96 229 227 0 274 -17 194 0 1
42 45 60 55 279 192 0 266 +17 266 0 265 280 261 55 45 255 0 0 -15 265 1486 0 266
 18 0 17 280 0 265 54 266 61 57 244 0 0 -17 54 0 265 261 280 52 63 249 0 258 -17
 57 0 281 279 214 55 280 244 0 194 +15 281 195 0 279 282 0 17 279 0 281 248 57 5
8 194 192 0 283 -17 214 0 281 57 248 61 269 212 0 280 +17 248 0 281 214 279 64 2
83 246 0 269 +17 269 0 35 51 63 64 214 212 0 0 -17 51 0 35 284 269 49 66 251 0 2
10 +17 284 0 35 238 51 115 210 208 0 0 -17 66 0 285 283 286 64 51 251 0 248 -17
 210 0 287 48 169 49 284 208 0 286 +15 287 197 0 210 288 0 17 48 0 287 289 210 4
6 286 253 0 190 +17 169 0 287 210 289 115 123 167 0 284 +17 286 0 285 66 290 49
 48 253 0 0 -15 285 1465 0 290 291 0 17 290 0 285 286 283 46 60 257 0 0 -17 283
 0 285 290 66 58 248 246 0 0 -17 60 0 142 194 190 58 290 257 0 279 +17 190 0 142
 60 292 46 289 188 0 290 +17 292 0 142 190 293 121 120 159 0 289 -17 289 0 287 1
69 48 121 190 188 0 0 -17 293 0 142 292 294 118 295 191 0 0 +17 120 0 296 75 123
 118 292 159 0 172 +15 296 784 0 117 297 0 17 75 0 296 117 120 73 172 170 0 238
 -17 123 0 296 120 117 121 169 167 0 292 -17 172 0 298 295 299 118 75 170 0 293
 +15 298 651 0 295 300 0 17 295 0 298 175 172 112 293 191 0 0 -17 299 0 298 172
 175 73 301 211 0 0 +17 175 0 298 299 295 106 114 173 0 301 +17 301 0 35 241 238
 106 299 211 0 0 -16 211 561 0 ?299 212 208 206 208 208 1 17 241 0 35 302 301 67
 108 239 0 303 +17 238 0 35 301 284 73 117 236 0 299 +17 117 0 296 123 75 115 23
8 236 0 169 -17 302 0 35 235 241 124 303 204 0 0 -17 108 0 304 114 69 106 241 23
9 0 175 -17 303 0 305 178 163 67 302 204 0 0 +15 305 201 0 303 306 0 17 178 0 30
5 307 303 109 69 176 0 308 +17 163 0 305 303 307 124 132 144 0 302 +16 204 573 0
 ?303 205 180 203 205 205 1 17 307 0 305 163 178 130 308 183 0 0 -17 132 0 309 1
29 126 130 163 144 0 310 -15 309 820 0 126 311 0 17 129 0 309 72 132 127 310 156
 0 166 +17 126 0 309 132 72 124 235 233 0 163 -17 310 0 142 308 187 130 129 156
 0 307 -17 308 0 142 294 310 109 307 183 0 0 +17 187 0 142 310 100 127 312 185 0
 0 +17 100 0 142 187 136 80 143 181 0 312 +17 312 0 313 232 166 80 187 185 0 314
 -15 313 663 0 207 315 0 17 232 0 313 207 312 87 314 230 0 0 +17 166 0 313 312 2
07 127 72 164 0 187 +17 314 0 316 143 89 80 232 230 0 0 -15 316 675 0 143 317 0
 17 143 0 316 140 314 103 100 181 0 0 -17 89 0 316 314 140 87 318 180 0 319 +17
 140 0 316 89 143 90 105 141 0 318 +17 318 0 35 37 319 90 89 180 0 0 -17 319 0 3
5 318 235 87 207 205 0 232 -17 235 0 35 319 302 70 126 233 0 207 +17 207 0 313 1
66 232 70 319 205 0 0 +17 37 0 35 33 318 34 102 242 0 38 +17 102 0 135 105 40 90
 37 242 0 140 -14 255 317 676 320 ?315 139 316 5 321 -0 0 315 139 22 81 1 320 17
55 322 317 323 0 0 324 325 14 315 664 324 ?300 317 313 5 326 -306 306 300 317 22
 14 139 1578 327 ?317 268 135 5 328 -0 0 317 268 22 51 321 214 0 317 326 19 0 +2
5e-5 8e-4 -3673940397442895e-35 0 -1 0 5e-5 0 0 -1 13 22 76 0 0 0 0 0 0 9 16 14
 16 1598 329 ?149 0 27 5 330 -0 0 149 0 22 81 1 329 1758 322 16 331 0 327 332 33
3 14 149 1593 332 ?268 16 142 5 334 +0 0 268 16 22 15 27 1597 0 25 16 0 51 330 2
06 0 16 335 336 0 -25e-5 8e-4 -3673940397442895e-35 0 -1 0 45e-5 0 0 -1 50 255 3
35 154 0 268 334 330 0 +25e-5 0 -3673940397442895e-35 0 1 0 0 0 1 50 336 207 0 2
77 330 337 0 +.0002421464171032255 8e-4 -.000449931462820376 .01745240643727705
 0 .999847695156391 .999847695156391 0 -.01745240643727705 14 277 190 338 ?311 2
73 276 5 336 -0 0 311 273 22 51 337 208 0 273 336 339 0 -.00181325157077426 8e-4
 .0004227818899676235 0 -1 0 .000900000000014856 0 0 -1 14 273 192 340 ?277 263
 271 5 337 -0 0 277 263 22 50 339 209 0 263 337 341 0 +.00181325157077426 8e-4 -
.000477218110047232 303576608295945e-30 0 1 1 0 -303576608295945e-30 14 263 194
 342 ?273 282 259 5 339 -0 0 273 282 22 50 341 210 0 282 339 343 0 +.00431325157
077423 8e-4 -.000477218110047233 -1 0 0 0 0 1 14 282 196 344 ?263 288 281 5 341
 -0 0 263 288 22 50 343 211 0 288 341 326 0 +.00431325157077423 8e-4 -7721811004
72352e-19 -4282598581317795e-31 0 -1 -1 0 4282598581317795e-31 14 288 198 345 ?2
82 306 287 5 343 -300 300 282 306 22 50 326 213 0 306 343 321 0 +.00180452536755
5625 8e-4 -771419576254298e-19 -.01745240643727685 0 -.999847695156391 -.9998476
95156391 0 .01745240643727685 14 306 202 346 ?288 300 305 5 326 -315 315 288 300
 22 81 1 346 1765 322 306 347 0 345 348 349 14 300 652 348 ?306 315 298 5 343 -2
88 288 306 315 22 81 1 348 1766 322 300 350 0 346 351 352 80 255 1 322 353 354 9
000 1 1 1 1 1 1 1 1 0 FFFFTFTFFFFFFF1 81 1 350 1698 355 300 0 348 356 347 357 81
 1 351 1767 322 358 359 0 348 360 361 82 255 1 352 579207417 14 358 745 351 ?291
 297 304 5 362 -0 0 291 297 22 81 1 359 1707 355 358 0 351 363 364 365 81 1 360
 1768 322 297 363 0 351 366 367 82 1 361 572129529 14 297 781 360 ?358 311 296 5
 368 -0 0 358 311 22 81 1 363 1706 355 297 0 360 369 359 370 81 1 366 1769 322 3
11 369 0 360 371 372 82 1 367 570228985 14 311 817 366 ?297 277 309 5 373 -0 0 2
97 277 22 81 1 369 1705 355 311 0 366 374 363 375 81 1 371 1770 322 153 376 0 36
6 377 378 82 1 372 568328441 14 153 1618 371 ?0 18 151 5 379 +0 0 0 18 22 81 1 3
76 1710 355 153 0 371 380 0 381 81 1 377 1771 322 18 380 0 371 382 383 82 1 378
 1700593919 14 18 1485 377 ?153 291 265 5 6 +0 0 153 291 22 81 1 380 1709 355 18
 0 377 364 376 384 81 1 382 1772 322 291 364 0 377 385 386 82 1 383 648937723 14
 291 1464 382 ?18 358 285 5 19 +0 0 18 358 22 81 1 364 1708 355 291 0 382 359 38
0 387 81 1 385 1773 322 268 388 0 382 0 389 82 1 386 646971643 14 268 1585 385 ?
139 149 35 5 335 -0 0 139 149 22 81 1 388 1694 355 268 0 385 390 391 392 82 1 38
9 1701314815 80 1 355 0 393 8001 0 0 0 0 3 5 0 0 0 FFFFTFTFFFFFFF2 81 1 390 1693
 355 149 0 332 331 388 394 81 1 391 1695 355 139 0 327 388 323 395 83 255 3 392
 .686274509803922 .658823529411765 .63921568627451 81 1 327 1757 322 139 391 0 3
24 329 396 81 1 323 1696 355 317 0 320 391 356 397 83 3 395 .686274509803922 .65
8823529411765 .63921568627451 81 1 356 1697 355 315 0 324 323 350 398 83 3 397 .
686274509803922 .658823529411765 .63921568627451 81 1 324 1756 322 315 356 0 320
 327 399 83 3 398 .686274509803922 .658823529411765 .63921568627451 82 1 399 582
091001 82 1 396 1698824447 81 1 332 1759 322 149 390 0 329 338 400 81 1 331 1692
 355 16 0 329 0 390 401 83 3 394 .686274509803922 .658823529411765 .639215686274
51 83 3 401 .686274509803922 .658823529411765 .63921568627451 81 1 338 1760 322
 277 374 0 332 340 402 82 1 400 1702101247 81 1 374 1704 355 277 0 338 403 369 4
04 81 1 340 1761 322 273 403 0 338 342 405 82 1 402 464847094 81 1 403 1703 355
 273 0 340 406 374 407 81 1 342 1762 322 263 406 0 340 344 408 82 1 405 46510923
8 81 1 406 1702 355 263 0 342 409 403 410 81 1 344 1763 322 282 409 0 342 345 41
1 82 1 408 465371387 81 1 409 1701 355 282 0 344 412 406 413 81 1 345 1764 322 2
88 412 0 344 346 414 82 1 411 465633531 81 1 412 1700 355 288 0 345 347 409 415
 82 1 414 465895675 81 1 347 1699 355 306 0 346 350 412 416 83 3 415 .6862745098
03922 .658823529411765 .63921568627451 83 3 416 .686274509803922 .65882352941176
5 .63921568627451 83 3 413 .686274509803922 .658823529411765 .63921568627451 83
 3 410 .686274509803922 .658823529411765 .63921568627451 83 3 407 .6862745098039
22 .658823529411765 .63921568627451 83 3 404 .686274509803922 .658823529411765 .
63921568627451 79 255 15 393 SDL/TYSA_COLOUR83 3 387 .686274509803922 .658823529
411765 .63921568627451 51 19 1476 0 291 321 6 0 +.00421325157077423 8e-4 -.00017
7218110047235 0 -1 0 1e-4 0 0 -1 83 3 384 .686274509803922 .658823529411765 .639
21568627451 83 3 381 .686274509803922 .658823529411765 .63921568627451 50 379 16
29 0 153 0 328 0 +0 0 0 0 0 1 1 0 0 51 328 849 0 139 379 362 0 +.000200000000000
046 -.0092 57069694054943e-32 0 1 0 5e-5 0 0 1 51 362 846 0 358 328 368 0 +.0018
08888303025075 -.0092 -771990715793198e-19 0 1 0 5e-5 0 0 1 51 368 843 0 297 362
 373 0 +.003063251570774245 -.0092 -772181100472346e-19 0 1 0 5e-5 0 0 1 51 373
 840 0 311 368 334 0 +.00102682637361688 -.0092 -635671711916247e-19 0 1 0 5e-5
 0 0 1 50 334 3 0 149 373 335 0 +25e-5 8e-4 -3673940397442895e-35 0 1 0 0 0 1 83
 3 375 .686274509803922 .658823529411765 .63921568627451 83 3 370 .6862745098039
22 .658823529411765 .63921568627451 83 3 365 .686274509803922 .658823529411765 .
63921568627451 15 304 748 0 108 358 0 83 3 357 .686274509803922 .658823529411765
 .63921568627451 79 14 354 SWEntUnchanged82 1 349 466419961 82 1 333 1702559999
 82 1 325 583729401 17 72 0 309 126 129 70 166 164 0 235 -17 294 0 142 293 308 1
12 111 145 0 295 -16 183 612 0 ?308 185 181 182 185 185 1 17 111 0 304 69 114 10
9 294 145 0 178 +17 69 0 304 108 111 67 178 176 0 241 -17 114 0 304 111 108 112
 175 173 0 294 -16 191 618 0 ?293 192 188 186 188 188 1 17 223 0 27 29 28 77 278
 202 0 36 +17 28 0 27 223 25 76 32 150 0 0 -17 29 0 27 25 223 26 36 184 0 30 +17
 36 0 35 270 33 77 29 184 0 0 -19 17 226 0 1 0 9 5 S0 74 4 CI16 index_map_offset
0 0 1 dCCZ20 15 9 0 0 385 417 418 419 420 421 13 376 2 0 0 0 0 0 0 0 0 0 0 0 81
 2 417 511 422 1 0 418 0 0 0 423 81 2 418 513 424 1 417 419 0 0 0 425 81 2 419 1
566 426 1 418 420 0 0 0 0 81 1 420 1669 427 1 419 421 0 0 428 81 2 421 1670 429
 1 420 13 0 0 430 0 81 2 13 1691 431 1 421 2 0 0 0 432 80 2 431 433 434 9000 0 0
 0 0 3 5 0 0 0 FFTFFFFFFFFFFF9 1 82 1 432 1 79 24 434 BODY_IN_LIGHTWEIGHT_PERM80
 2 429 435 436 8004 0 0 0 0 3 5 0 0 0 FFTFFFFFFFFFFF2 3 83 1 430 45e2 79 16 436
 SDL/TYSA_DENSITY80 1 427 437 438 9000 1 1 1 1 1 1 1 1 0 FFTFFFFFFFFFFF1 82 1 42
8 334537 79 10 438 BODY_MATCH80 2 426 439 440 9000 0 0 0 0 3 5 0 0 0 FFTFFFFFFFF
FFF9 1 79 16 440 BODY_RECIPE_200180 2 424 441 442 9000 0 0 0 0 3 5 0 0 0 FFTFFFF
FFFFFFF9 1 82 1 425 148 79 30 442 LAST_BODY_MODIFYING_FEATURE_ID80 2 422 443 444
 9000 0 0 0 0 3 5 0 0 0 FFTFFFFFFFFFFT9 1 82 1 423 221 79 19 444 ENT_TIME_STAMP_
200180 2 12 445 446 9000 0 0 0 0 3 5 0 0 0 FFTFFFFFFFFFFF9 1 82 1 14 111 79 12 4
46 ATOM_ID_20011 0 
